#!OML:ASF E:\CV Data\Top Level 1\Subject 1\Session 1\player.ASF
:FULLY-SPECIFIED
:DEGREES
608
root -3.25937 16.5293 47.8692 -172.147 25.1406 -178.311
lowerback 3.59287 1.04008 1.02365
upperback 0.844154 1.58108 3.27648
thorax -1.21352 0.838 2.71806
lowerneck -7.81169 -7.12398 -16.5013
upperneck -26.1903 -1.40025 23.7541
head -5.702 0.803243 11.0579
rclavicle 9.34288e-015 2.70347e-014
rhumerus -33.1436 37.0433 -96.0736
rradius 129.995
rwrist 6.40104
rhand -46.3427 39.3956
rfingers 7.12502
rthumb -19.0753 10.311
lclavicle 9.34288e-015 2.70347e-014
lhumerus -39.7044 -47.8126 117.192
lradius 117.905
lwrist 24.6786
lhand -48.8033 42.3302
lfingers 7.12502
lthumb -21.4401 71.1639
rfemur -29.6752 -3.77649 15.0088
rtibia 45.5927
rfoot -17.454 -22.4777
rtoes 2.80666
lfemur -8.32402 0.727017 -9.70588
ltibia 32.5413
lfoot -14.7917 18.0933
ltoes -45.2803
609
root -3.1957 16.5278 47.8536 -172.136 25.7083 -178.239
lowerback 3.50144 1.03955 0.990188
upperback 0.844209 1.5781 3.32434
thorax -1.1644 0.837045 2.78829
lowerneck -8.01374 -7.01007 -16.4358
upperneck -26.0716 -1.20215 23.8251
head -5.67231 0.900717 11.0683
rclavicle 1.35174e-014 -5.32743e-014
rhumerus -33.0985 36.897 -96.0095
rradius 130.002
rwrist 6.42144
rhand -46.3589 39.8527
rfingers 7.12502
rthumb -19.0908 10.7696
lclavicle 1.35174e-014 -5.32743e-014
lhumerus -39.6194 -47.9274 117.213
lradius 117.871
lwrist 24.6208
lhand -48.7513 42.3832
lfingers 7.12502
lthumb -21.3902 71.2225
rfemur -29.668 -3.48163 15.2462
rtibia 45.6891
rfoot -17.5841 -22.2796
rtoes 2.57578
lfemur -7.95652 0.642565 -9.56845
ltibia 32.5264
lfoot -14.6281 18.4747
ltoes -45.4328
610
root -3.13002 16.5276 47.8383 -172.114 26.2856 -178.147
lowerback 3.4042 1.0407 0.970012
upperback 0.846704 1.57802 3.37595
thorax -1.1094 0.837615 2.85495
lowerneck -8.20398 -6.89057 -16.3785
upperneck -25.9537 -0.997693 23.9022
head -5.64601 1.00105 11.0835
rclavicle 1.11319e-014 -1.03368e-014
rhumerus -33.066 36.7513 -95.961
rradius 130.002
rwrist 6.42626
rhand -46.3782 40.3097
rfingers 7.12502
rthumb -19.1094 11.2285
lclavicle 1.11319e-014 -1.03368e-014
lhumerus -39.5444 -48.0445 117.243
lradius 117.842
lwrist 24.5862
lhand -48.727 42.4518
lfingers 7.12502
lthumb -21.3668 71.2937
rfemur -29.6375 -3.16334 15.506
rtibia 45.7472
rfoot -17.7034 -22.0923
rtoes 2.34415
lfemur -7.59808 0.564644 -9.40672
ltibia 32.5357
lfoot -14.4137 18.8358
ltoes -45.6346
611
root -3.06238 16.5287 47.8235 -172.078 26.8692 -178.031
lowerback 3.3056 1.04243 0.966783
upperback 0.848075 1.57982 3.43326
thorax -1.0546 0.839283 2.91793
lowerneck -8.3555 -6.76215 -16.3172
upperneck -25.8565 -0.786314 23.9691
head -5.63535 1.10249 11.0964
rclavicle 4.09496e-014 1.98785e-014
rhumerus -33.06 36.6085 -95.9343
rradius 130.002
rwrist 6.41773
rhand -46.3962 40.7536
rfingers 7.12502
rthumb -19.1267 11.6741
lclavicle 4.09496e-014 1.98785e-014
lhumerus -39.5048 -48.1561 117.302
lradius 117.825
lwrist 24.5587
lhand -48.6993 42.5298
lfingers 7.12502
lthumb -21.3402 71.3748
rfemur -29.5833 -2.81899 15.794
rtibia 45.767
rfoot -17.8149 -21.9171
rtoes 2.12865
lfemur -7.2551 0.503577 -9.21093
ltibia 32.5749
lfoot -14.1275 19.1705
ltoes -45.9186
612
root -2.99307 16.531 47.8093 -172.032 27.4537 -177.89
lowerback 3.21284 1.04387 0.986806
upperback 0.852668 1.58244 3.49144
thorax -0.999199 0.841456 2.96863
lowerneck -8.48715 -6.6323 -16.2311
upperneck -25.7702 -0.580658 24.0151
head -5.63189 1.19836 11.0972
rclavicle -3.20043e-014 -3.10104e-014
rhumerus -33.0637 36.4651 -95.9261
rradius 130
rwrist 6.40209
rhand -46.4215 41.184
rfingers 7.12502
rthumb -19.151 12.1069
lclavicle -3.20043e-014 -3.10104e-014
lhumerus -39.5003 -48.2709 117.38
lradius 117.824
lwrist 24.5451
lhand -48.7062 42.5752
lfingers 7.12502
lthumb -21.3468 71.4194
rfemur -29.4989 -2.45579 16.1081
rtibia 45.7497
rfoot -17.9233 -21.7494
rtoes 1.94445
lfemur -6.92554 0.464578 -8.98072
ltibia 32.6484
lfoot -13.7568 19.4686
ltoes -46.2975
613
root -2.9221 16.5344 47.7955 -171.975 28.0408 -177.718
lowerback 3.12924 1.0449 1.03013
upperback 0.857135 1.58619 3.55612
thorax -0.948695 0.844454 3.01272
lowerneck -8.5815 -6.49388 -16.1301
upperneck -25.7049 -0.370889 24.0398
head -5.64376 1.29326 11.0886
rclavicle 1.21259e-014 -4.92986e-014
rhumerus -33.0964 36.3243 -95.9403
rradius 130.001
rwrist 6.38132
rhand -46.4419 41.5648
rfingers 7.12502
rthumb -19.1707 12.4897
lclavicle 1.21259e-014 -4.92986e-014
lhumerus -39.5384 -48.3768 117.485
lradius 117.836
lwrist 24.5386
lhand -48.6814 42.6437
lfingers 7.12502
lthumb -21.323 71.4906
rfemur -29.3801 -2.07205 16.4546
rtibia 45.6963
rfoot -18.0283 -21.5886
rtoes 1.78271
lfemur -6.60758 0.458312 -8.70723
ltibia 32.7602
lfoot -13.2881 19.7228
ltoes -46.785
614
root -2.84969 16.5389 47.7821 -171.913 28.6289 -177.519
lowerback 3.05689 1.04579 1.09279
upperback 0.865335 1.59137 3.62902
thorax -0.900461 0.8485 3.05423
lowerneck -8.66634 -6.35381 -16.026
upperneck -25.6219 -0.172483 24.052
head -5.64978 1.38018 11.0731
rclavicle -4.11484e-014 -1.43125e-014
rhumerus -33.1461 36.1825 -95.9566
rradius 130.002
rwrist 6.36342
rhand -46.4588 41.9242
rfingers 7.12502
rthumb -19.1869 12.8507
lclavicle -4.11484e-014 -1.43125e-014
lhumerus -39.6029 -48.4737 117.606
lradius 117.852
lwrist 24.5242
lhand -48.6724 42.6815
lfingers 7.12502
lthumb -21.3144 71.5294
rfemur -29.2231 -1.67472 16.8281
rtibia 45.6075
rfoot -18.1338 -21.4265
rtoes 1.65423
lfemur -6.30051 0.486038 -8.39512
ltibia 32.913
lfoot -12.6906 19.9371
ltoes -47.4141
615
root -2.7757 16.5443 47.7694 -171.845 29.218 -177.291
lowerback 3.0029 1.05049 1.16902
upperback 0.880972 1.60319 3.70987
thorax -0.855051 0.856226 3.09582
lowerneck -8.76483 -6.21767 -15.9157
upperneck -25.5319 0.0189628 24.0577
head -5.64989 1.46445 11.0525
rclavicle 2.90226e-014 -3.97569e-015
rhumerus -33.1905 36.0277 -95.9623
rradius 129.998
rwrist 6.35276
rhand -46.4756 42.2589
rfingers 7.12502
rthumb -19.203 13.1869
lclavicle 2.90226e-014 -3.97569e-015
lhumerus -39.6748 -48.5767 117.729
lradius 117.868
lwrist 24.5202
lhand -48.667 42.724
lfingers 7.12502
lthumb -21.3092 71.5725
rfemur -29.0269 -1.26797 17.2309
rtibia 45.4832
rfoot -18.2348 -21.2628
rtoes 1.52951
lfemur -6.00505 0.560334 -8.03934
ltibia 33.1097
lfoot -11.9368 20.101
ltoes -48.1991
616
root -2.70036 16.5508 47.7574 -171.769 29.803 -177.041
lowerback 2.96321 1.05502 1.25081
upperback 0.899416 1.61613 3.801
thorax -0.814976 0.864896 3.14466
lowerneck -8.86974 -6.07807 -15.8199
upperneck -25.4319 0.215181 24.0691
head -5.64626 1.5524 11.0365
rclavicle -4.11484e-014 2.54444e-014
rhumerus -33.2405 35.8683 -95.9552
rradius 129.992
rwrist 6.33825
rhand -46.4954 42.5907
rfingers 7.12502
rthumb -19.2221 13.5207
lclavicle -4.11484e-014 2.54444e-014
lhumerus -39.7433 -48.6733 117.852
lradius 117.874
lwrist 24.5166
lhand -48.6669 42.7537
lfingers 7.12502
lthumb -21.3091 71.6022
rfemur -28.7956 -0.866706 17.6563
rtibia 45.3235
rfoot -18.3319 -21.0872
rtoes 1.41705
lfemur -5.73 0.679751 -7.64606
ltibia 33.3531
lfoot -11.0156 20.2084
ltoes -49.1319
617
root -2.62389 16.5583 47.7459 -171.683 30.3849 -176.767
lowerback 2.93739 1.06179 1.3399
upperback 0.918987 1.63355 3.90187
thorax -0.781824 0.876197 3.19911
lowerneck -8.97028 -5.9351 -15.7283
upperneck -25.3373 0.41718 24.0789
head -5.6463 1.64385 11.0212
rclavicle 2.127e-014 -5.725e-014
rhumerus -33.2954 35.6982 -95.9314
rradius 129.984
rwrist 6.32709
rhand -46.5115 42.8948
rfingers 7.12502
rthumb -19.2377 13.8263
lclavicle 2.127e-014 -5.725e-014
lhumerus -39.8162 -48.7537 117.989
lradius 117.864
lwrist 24.5081
lhand -48.6747 42.7671
lfingers 7.12502
lthumb -21.3166 71.6147
rfemur -28.5332 -0.474853 18.1053
rtibia 45.1295
rfoot -18.4209 -20.8982
rtoes 1.29529
lfemur -5.47977 0.845112 -7.21427
ltibia 33.6465
lfoot -9.91139 20.2486
ltoes -50.1985
618
root -2.54648 16.5667 47.7349 -171.582 30.9637 -176.473
lowerback 2.91787 1.06744 1.4351
upperback 0.939299 1.65042 4.00891
thorax -0.751452 0.887503 3.25644
lowerneck -9.07526 -5.79031 -15.6346
upperneck -25.2308 0.617323 24.0858
head -5.64148 1.73407 11.0032
rclavicle 4.85035e-014 7.95139e-016
rhumerus -33.3449 35.5264 -95.8915
rradius 129.971
rwrist 6.3121
rhand -46.5401 43.1929
rfingers 7.12502
rthumb -19.2651 14.1272
lclavicle 4.85035e-014 7.95139e-016
lhumerus -39.8826 -48.8206 118.131
lradius 117.837
lwrist 24.4991
lhand -48.6709 42.7676
lfingers 7.12502
lthumb -21.3129 71.6156
rfemur -28.2485 -0.0985805 18.5718
rtibia 44.9044
rfoot -18.5025 -20.6911
rtoes 1.16368
lfemur -5.26256 1.05637 -6.74972
ltibia 33.9935
lfoot -8.62286 20.2004
ltoes -51.3604
619
root -2.46852 16.5755 47.724 -171.466 31.5501 -176.163
lowerback 2.90039 1.07362 1.53784
upperback 0.956623 1.66885 4.12113
thorax -0.725326 0.899835 3.31486
lowerneck -9.15158 -5.63734 -15.549
upperneck -25.1292 0.823203 24.0917
head -5.64431 1.82521 10.9872
rclavicle 4.45278e-014 4.21423e-014
rhumerus -33.4029 35.3569 -95.839
rradius 129.974
rwrist 6.26171
rhand -46.6117 43.5877
rfingers 7.12502
rthumb -19.3339 14.5289
lclavicle 4.45278e-014 4.21423e-014
lhumerus -39.9533 -48.8658 118.286
lradius 117.799
lwrist 24.4939
lhand -48.6331 42.7896
lfingers 7.12502
lthumb -21.2766 71.6417
rfemur -27.9473 0.263061 19.0504
rtibia 44.6514
rfoot -18.5742 -20.4574
rtoes 1.00973
lfemur -5.07934 1.30894 -6.26008
ltibia 34.3964
lfoot -7.14215 20.0509
ltoes -52.5824
620
root -2.39044 16.5847 47.7134 -171.332 32.1305 -175.843
lowerback 2.88267 1.07478 1.64929
upperback 0.967505 1.68114 4.23351
thorax -0.705172 0.909201 3.36873
lowerneck -9.20168 -5.47817 -15.4599
upperneck -25.0184 1.02593 24.0934
head -5.64825 1.91123 10.9684
rclavicle 1.00784e-013 9.14409e-014
rhumerus -33.4683 35.1959 -95.7816
rradius 129.983
rwrist 6.19772
rhand -46.7002 43.9782
rfingers 7.12502
rthumb -19.4191 14.9278
lclavicle 1.00784e-013 9.14409e-014
lhumerus -40.0376 -48.8943 118.453
lradius 117.756
lwrist 24.4877
lhand -48.5923 42.8003
lfingers 7.12502
lthumb -21.2375 71.6568
rfemur -27.6374 0.601882 19.5335
rtibia 44.3753
rfoot -18.6442 -20.1971
rtoes 0.853455
lfemur -4.94528 1.59549 -5.75077
ltibia 34.8585
lfoot -5.46698 19.7555
ltoes -53.8077
